<svg xmlns="http://www.w3.org/2000/svg" width="24" height="24" viewBox="0 0 98.89 98.89"><defs><style>.cls-1{fill:#1966d8;}</style></defs><title>Recurso 2</title><g id="Capa_2" data-name="Capa 2"><g id="Objects"><path class="cls-1" d="M52.72,80V52.13h9.36l1.4-10.87H52.72V34.33c0-3.14.88-5.29,5.39-5.29h5.75V19.33a74.81,74.81,0,0,0-8.38-.43c-8.3,0-14,5.06-14,14.36v8H32.13V52.13h9.38V80Z"/><path class="cls-1" d="M88.52,0H10.37A10.41,10.41,0,0,0,0,10.37V88.52A10.41,10.41,0,0,0,10.37,98.89H88.52A10.41,10.41,0,0,0,98.89,88.52V10.37A10.41,10.41,0,0,0,88.52,0Zm3.85,87A5.38,5.38,0,0,1,87,92.37H11.89A5.38,5.38,0,0,1,6.52,87V11.89a5.38,5.38,0,0,1,5.37-5.37H87a5.38,5.38,0,0,1,5.37,5.37Z"/></g></g></svg>