<svg xmlns="http://www.w3.org/2000/svg"  width="24" height="24" viewBox="0 0 98.89 98.89"><defs><style>.cls-1{fill:#1966d8;}</style></defs><title>instagram</title><g id="Capa_2" data-name="Capa 2"><g id="Objects"><path class="cls-1" d="M49.41,28.56c7,0,7.79,0,10.54.15a14.46,14.46,0,0,1,4.85.9,8.62,8.62,0,0,1,5,5,14.46,14.46,0,0,1,.9,4.85c.13,2.75.15,3.57.15,10.54s0,7.8-.15,10.55a14.45,14.45,0,0,1-.9,4.84,8.68,8.68,0,0,1-5,5,14.54,14.54,0,0,1-4.85.89c-2.75.13-3.57.16-10.54.16s-7.79,0-10.55-.16A14.52,14.52,0,0,1,34,70.3a8.06,8.06,0,0,1-3-2,7.91,7.91,0,0,1-1.95-3,14.19,14.19,0,0,1-.9-4.84C28,57.75,28,56.92,28,50s0-7.79.16-10.54a14.21,14.21,0,0,1,.9-4.85,7.91,7.91,0,0,1,1.95-3,8,8,0,0,1,3-1.95,14.45,14.45,0,0,1,4.84-.9c2.76-.12,3.58-.15,10.55-.15m0-4.7c-7.09,0-8,0-10.76.15a19,19,0,0,0-6.33,1.22,13.33,13.33,0,0,0-7.64,7.63,19.39,19.39,0,0,0-1.21,6.33c-.13,2.79-.16,3.68-.16,10.76s0,8,.16,10.76a19.4,19.4,0,0,0,1.21,6.34,13.33,13.33,0,0,0,7.64,7.63,19,19,0,0,0,6.33,1.21c2.78.13,3.67.16,10.76.16s8,0,10.76-.16a19.08,19.08,0,0,0,6.33-1.21,13.41,13.41,0,0,0,7.64-7.63,19.4,19.4,0,0,0,1.21-6.34c.13-2.78.16-3.67.16-10.76s0-8-.16-10.76a19.39,19.39,0,0,0-1.21-6.33,13.41,13.41,0,0,0-7.64-7.63A19.05,19.05,0,0,0,60.17,24c-2.79-.12-3.67-.15-10.76-.15m0,12.69A13.4,13.4,0,1,0,62.81,50a13.4,13.4,0,0,0-13.4-13.4m0,22.1a8.7,8.7,0,1,1,8.7-8.7,8.7,8.7,0,0,1-8.7,8.7M66.47,36a3.13,3.13,0,1,0-3.13,3.13A3.13,3.13,0,0,0,66.47,36"/><path class="cls-1" d="M88.52,0H10.37A10.41,10.41,0,0,0,0,10.37V88.52A10.41,10.41,0,0,0,10.37,98.89H88.52A10.41,10.41,0,0,0,98.89,88.52V10.37A10.41,10.41,0,0,0,88.52,0Zm3.85,87A5.38,5.38,0,0,1,87,92.37H11.89A5.38,5.38,0,0,1,6.52,87V11.89a5.38,5.38,0,0,1,5.37-5.37H87a5.38,5.38,0,0,1,5.37,5.37Z"/></g></g></svg>