<svg xmlns="http://www.w3.org/2000/svg" width="24" height="24" viewBox="0 0 98.89 98.89"><defs><style>.cls-1{fill:#1966d8;}</style></defs><title>twitter</title><g id="Capa_2" data-name="Capa 2"><g id="Objects"><path class="cls-1" d="M40.34,74.88c23.15,0,35.81-19.17,35.81-35.8,0-.55,0-1.09,0-1.63a25.57,25.57,0,0,0,6.28-6.51,25.38,25.38,0,0,1-7.23,2,12.64,12.64,0,0,0,5.53-7,25.08,25.08,0,0,1-8,3.05,12.59,12.59,0,0,0-21.77,8.61,12.38,12.38,0,0,0,.33,2.87A35.77,35.77,0,0,1,25.32,27.34a12.6,12.6,0,0,0,3.9,16.8,12.46,12.46,0,0,1-5.7-1.58.92.92,0,0,0,0,.16,12.59,12.59,0,0,0,10.1,12.34,12.55,12.55,0,0,1-3.32.44,13,13,0,0,1-2.36-.22A12.58,12.58,0,0,0,39.68,64,25.28,25.28,0,0,1,24.05,69.4a24.91,24.91,0,0,1-3-.17,35.61,35.61,0,0,0,19.29,5.65"/><path class="cls-1" d="M88.52,0H10.37A10.41,10.41,0,0,0,0,10.37V88.52A10.41,10.41,0,0,0,10.37,98.89H88.52A10.41,10.41,0,0,0,98.89,88.52V10.37A10.41,10.41,0,0,0,88.52,0Zm3.85,87A5.38,5.38,0,0,1,87,92.37H11.89A5.38,5.38,0,0,1,6.52,87V11.89a5.38,5.38,0,0,1,5.37-5.37H87a5.38,5.38,0,0,1,5.37,5.37Z"/></g></g></svg>