<svg xmlns="http://www.w3.org/2000/svg" width="24" height="24" viewBox="0 0 98.89 98.89"><defs><style>.cls-1,.cls-2{fill:#1966d8;}.cls-1{fill-rule:evenodd;}</style></defs><title>whatsapp</title><g id="Capa_2" data-name="Capa 2"><g id="Objects"><path class="cls-1" d="M69.9,28.37A28.89,28.89,0,0,0,24.44,63.21l-4.1,15,15.31-4a29,29,0,0,0,13.81,3.52h0A28.89,28.89,0,0,0,69.9,28.37M49.47,72.8h0a23.91,23.91,0,0,1-12.22-3.35l-.88-.52-9.09,2.39,2.43-8.86-.57-.91A24,24,0,1,1,49.47,72.8m13.17-18c.72.36,1.2.54,1.38.85a6,6,0,0,1-.42,3.43c-.6,1.68-3.49,3.22-4.87,3.43a10,10,0,0,1-4.55-.29,39,39,0,0,1-4.11-1.52c-7.24-3.12-12-10.41-12.33-10.89s-3-3.92-3-7.47a8.1,8.1,0,0,1,2.52-6,2.68,2.68,0,0,1,1.93-.9c.48,0,1,0,1.38,0s1-.16,1.63,1.24,2,5,2.22,5.36a1.32,1.32,0,0,1,.06,1.26,4.78,4.78,0,0,1-.72,1.21c-.36.42-.76.94-1.08,1.26s-.74.75-.32,1.47a21.42,21.42,0,0,0,4,5,19.93,19.93,0,0,0,5.8,3.59c.72.36,1.15.3,1.57-.18s1.8-2.11,2.28-2.83,1-.61,1.63-.37,4.21,2,4.93,2.35"/><path class="cls-2" d="M88.52,0H10.37A10.41,10.41,0,0,0,0,10.37V88.52A10.41,10.41,0,0,0,10.37,98.89H88.52A10.41,10.41,0,0,0,98.89,88.52V10.37A10.41,10.41,0,0,0,88.52,0Zm3.85,87A5.38,5.38,0,0,1,87,92.37H11.89A5.38,5.38,0,0,1,6.52,87V11.89a5.38,5.38,0,0,1,5.37-5.37H87a5.38,5.38,0,0,1,5.37,5.37Z"/></g></g></svg>