<svg xmlns="http://www.w3.org/2000/svg" viewBox="0 0 98.89 98.89"><defs><style>.cls-1{fill:#1966d8;}</style></defs><title>youtube</title><g id="Capa_2" data-name="Capa 2"><g id="Objects"><path class="cls-1" d="M79.5,37.48s-.6-4.23-2.44-6.09a8.76,8.76,0,0,0-6.14-2.6c-8.59-.62-21.46-.62-21.46-.62h0s-12.87,0-21.46.62a8.76,8.76,0,0,0-6.14,2.6c-1.84,1.86-2.44,6.09-2.44,6.09a93.14,93.14,0,0,0-.61,9.92v4.66A93.14,93.14,0,0,0,19.39,62s.6,4.23,2.44,6.09c2.33,2.44,5.4,2.37,6.76,2.62,4.91.47,20.86.62,20.86.62s12.88,0,21.47-.64a8.76,8.76,0,0,0,6.14-2.6C78.9,66.21,79.5,62,79.5,62a93.14,93.14,0,0,0,.61-9.92V47.4A93.14,93.14,0,0,0,79.5,37.48ZM43.11,57.7V40.46l16.57,8.65Z"/><path class="cls-1" d="M88.52,0H10.37A10.41,10.41,0,0,0,0,10.37V88.52A10.41,10.41,0,0,0,10.37,98.89H88.52A10.41,10.41,0,0,0,98.89,88.52V10.37A10.41,10.41,0,0,0,88.52,0Zm3.85,87A5.38,5.38,0,0,1,87,92.37H11.89A5.38,5.38,0,0,1,6.52,87V11.89a5.38,5.38,0,0,1,5.37-5.37H87a5.38,5.38,0,0,1,5.37,5.37Z"/></g></g></svg>